<svg xmlns="http://www.w3.org/2000/svg" xmlns:xlink="http://www.w3.org/1999/xlink" width="1920" zoomAndPan="magnify" viewBox="0 0 1440 809.999993" height="1080" preserveAspectRatio="xMidYMid meet" version="1.0"><defs><clipPath id="946c8124bc"><path d="M 68.140625 290.617188 L 1371.652344 290.617188 L 1371.652344 519.566406 L 68.140625 519.566406 Z M 68.140625 290.617188 " clip-rule="nonzero"/></clipPath><clipPath id="a4dc9d9d5d"><path d="M 68.140625 387 L 1368 387 L 1368 519.566406 L 68.140625 519.566406 Z M 68.140625 387 " clip-rule="nonzero"/></clipPath></defs><g clip-path="url(#946c8124bc)"><path fill="#40aebd" d="M 1733.46875 1306.917969 C 1733.464844 1323.550781 1733.058594 1340.175781 1732.242188 1356.785156 C 1731.425781 1373.398438 1730.203125 1389.980469 1728.574219 1406.535156 C 1726.941406 1423.085938 1724.90625 1439.589844 1722.464844 1456.042969 C 1720.027344 1472.496094 1717.183594 1488.878906 1713.9375 1505.191406 C 1710.695312 1521.503906 1707.050781 1537.726562 1703.007812 1553.859375 C 1698.96875 1569.996094 1694.535156 1586.019531 1689.707031 1601.9375 C 1684.875 1617.851562 1679.660156 1633.640625 1674.058594 1649.300781 C 1668.453125 1664.960938 1662.46875 1680.476562 1656.105469 1695.84375 C 1649.738281 1711.207031 1643.003906 1726.410156 1635.890625 1741.445312 C 1628.78125 1756.480469 1621.304688 1771.332031 1613.464844 1786 C 1605.621094 1800.671875 1597.425781 1815.136719 1588.875 1829.402344 C 1580.324219 1843.671875 1571.429688 1857.71875 1562.1875 1871.546875 C 1552.949219 1885.375 1543.375 1898.972656 1533.464844 1912.332031 C 1523.558594 1925.691406 1513.328125 1938.796875 1502.777344 1951.65625 C 1492.226562 1964.511719 1481.363281 1977.101562 1470.195312 1989.425781 C 1459.023438 2001.75 1447.558594 2013.792969 1435.796875 2025.554688 C 1424.039062 2037.316406 1411.996094 2048.78125 1399.671875 2059.949219 C 1387.347656 2071.121094 1374.757812 2081.980469 1361.898438 2092.53125 C 1349.042969 2103.085938 1335.933594 2113.3125 1322.574219 2123.222656 C 1309.214844 2133.128906 1295.621094 2142.703125 1281.792969 2151.945312 C 1267.960938 2161.183594 1253.914062 2170.082031 1239.648438 2178.632812 C 1225.382812 2187.183594 1210.914062 2195.378906 1196.246094 2203.21875 C 1181.578125 2211.058594 1166.726562 2218.535156 1151.6875 2225.648438 C 1136.652344 2232.757812 1121.453125 2239.496094 1106.085938 2245.859375 C 1090.71875 2252.226562 1075.207031 2258.210938 1059.546875 2263.8125 C 1043.886719 2269.417969 1028.097656 2274.632812 1012.179688 2279.460938 C 996.265625 2284.289062 980.238281 2288.722656 964.105469 2292.765625 C 947.972656 2296.804688 931.746094 2300.449219 915.433594 2303.695312 C 899.121094 2306.941406 882.738281 2309.78125 866.285156 2312.222656 C 849.832031 2314.664062 833.332031 2316.699219 816.777344 2318.328125 C 800.226562 2319.960938 783.644531 2321.183594 767.03125 2322 C 750.417969 2322.816406 733.796875 2323.222656 717.164062 2323.222656 C 700.53125 2323.222656 683.910156 2322.816406 667.296875 2322 C 650.683594 2321.183594 634.101562 2319.960938 617.546875 2318.328125 C 600.996094 2316.699219 584.492188 2314.664062 568.039062 2312.222656 C 551.589844 2309.78125 535.207031 2306.941406 518.890625 2303.695312 C 502.578125 2300.449219 486.355469 2296.808594 470.222656 2292.765625 C 454.089844 2288.722656 438.0625 2284.289062 422.144531 2279.460938 C 406.230469 2274.632812 390.441406 2269.417969 374.78125 2263.8125 C 359.121094 2258.210938 343.609375 2252.226562 328.242188 2245.859375 C 312.875 2239.496094 297.671875 2232.757812 282.636719 2225.648438 C 267.601562 2218.535156 252.75 2211.058594 238.082031 2203.21875 C 223.414062 2195.378906 208.945312 2187.183594 194.679688 2178.632812 C 180.414062 2170.082031 166.363281 2161.183594 152.535156 2151.945312 C 138.707031 2142.703125 125.113281 2133.128906 111.753906 2123.222656 C 98.394531 2113.3125 85.285156 2103.085938 72.425781 2092.53125 C 59.570312 2081.980469 46.980469 2071.121094 34.65625 2059.949219 C 22.332031 2048.78125 10.289062 2037.316406 -1.472656 2025.554688 C -13.230469 2013.792969 -24.699219 2001.75 -35.867188 1989.425781 C -47.039062 1977.101562 -57.898438 1964.511719 -68.449219 1951.65625 C -79 1938.796875 -89.230469 1925.691406 -99.140625 1912.332031 C -109.046875 1898.972656 -118.621094 1885.375 -127.863281 1871.546875 C -137.101562 1857.71875 -145.996094 1843.671875 -154.546875 1829.402344 C -163.101562 1815.136719 -171.296875 1800.671875 -179.136719 1786 C -186.976562 1771.332031 -194.453125 1756.480469 -201.5625 1741.445312 C -208.675781 1726.410156 -215.414062 1711.207031 -221.777344 1695.84375 C -228.144531 1680.476562 -234.128906 1664.960938 -239.730469 1649.300781 C -245.335938 1633.640625 -250.550781 1617.851562 -255.378906 1601.9375 C -260.207031 1586.019531 -264.640625 1569.996094 -268.683594 1553.859375 C -272.722656 1537.726562 -276.367188 1521.503906 -279.613281 1505.191406 C -282.855469 1488.878906 -285.699219 1472.496094 -288.140625 1456.042969 C -290.582031 1439.589844 -292.617188 1423.085938 -294.246094 1406.535156 C -295.875 1389.980469 -297.097656 1373.398438 -297.914062 1356.789062 C -298.730469 1340.175781 -299.140625 1323.550781 -299.140625 1306.917969 C -299.140625 1290.285156 -298.730469 1273.664062 -297.914062 1257.050781 C -297.097656 1240.4375 -295.875 1223.855469 -294.246094 1207.304688 C -292.617188 1190.75 -290.582031 1174.25 -288.140625 1157.796875 C -285.699219 1141.34375 -282.855469 1124.960938 -279.613281 1108.648438 C -276.367188 1092.335938 -272.722656 1076.113281 -268.683594 1059.976562 C -264.640625 1043.84375 -260.207031 1027.820312 -255.378906 1011.902344 C -250.550781 995.984375 -245.335938 980.199219 -239.730469 964.539062 C -234.128906 948.878906 -228.144531 933.363281 -221.777344 917.996094 C -215.414062 902.628906 -208.675781 887.429688 -201.5625 872.394531 C -194.453125 857.359375 -186.976562 842.507812 -179.136719 827.835938 C -171.296875 813.167969 -163.101562 798.703125 -154.546875 784.433594 C -145.996094 770.167969 -137.101562 756.121094 -127.863281 742.292969 C -118.621094 728.460938 -109.046875 714.867188 -99.140625 701.507812 C -89.230469 688.148438 -79 675.039062 -68.449219 662.183594 C -57.898438 649.328125 -47.039062 636.734375 -35.867188 624.410156 C -24.699219 612.089844 -13.230469 600.046875 -1.472656 588.285156 C 10.289062 576.523438 22.332031 565.058594 34.65625 553.886719 C 46.980469 542.71875 59.570312 531.859375 72.425781 521.304688 C 85.285156 510.753906 98.394531 500.523438 111.753906 490.617188 C 125.113281 480.710938 138.707031 471.136719 152.535156 461.894531 C 166.363281 452.652344 180.414062 443.757812 194.679688 435.207031 C 208.945312 426.65625 223.414062 418.460938 238.082031 410.621094 C 252.75 402.78125 267.601562 395.304688 282.636719 388.191406 C 297.671875 381.082031 312.875 374.34375 328.242188 367.976562 C 343.609375 361.613281 359.121094 355.628906 374.78125 350.023438 C 390.441406 344.421875 406.230469 339.207031 422.144531 334.378906 C 438.0625 329.550781 454.085938 325.113281 470.222656 321.074219 C 486.355469 317.03125 502.578125 313.390625 518.890625 310.144531 C 535.207031 306.898438 551.589844 304.058594 568.039062 301.617188 C 584.492188 299.175781 600.996094 297.140625 617.546875 295.511719 C 634.101562 293.878906 650.683594 292.65625 667.296875 291.839844 C 683.910156 291.023438 700.53125 290.617188 717.164062 290.617188 C 733.796875 290.617188 750.417969 291.023438 767.03125 291.839844 C 783.644531 292.65625 800.226562 293.878906 816.777344 295.511719 C 833.332031 297.140625 849.832031 299.175781 866.285156 301.617188 C 882.738281 304.058594 899.121094 306.898438 915.433594 310.144531 C 931.746094 313.390625 947.972656 317.03125 964.105469 321.074219 C 980.238281 325.113281 996.265625 329.550781 1012.179688 334.378906 C 1028.097656 339.207031 1043.886719 344.421875 1059.546875 350.023438 C 1075.207031 355.628906 1090.71875 361.613281 1106.085938 367.976562 C 1121.453125 374.34375 1136.652344 381.082031 1151.6875 388.191406 C 1166.726562 395.304688 1181.578125 402.78125 1196.246094 410.621094 C 1210.914062 418.460938 1225.382812 426.65625 1239.648438 435.207031 C 1253.914062 443.757812 1267.960938 452.652344 1281.792969 461.894531 C 1295.621094 471.136719 1309.214844 480.710938 1322.574219 490.617188 C 1335.933594 500.523438 1349.042969 510.753906 1361.898438 521.304688 C 1374.757812 531.859375 1387.347656 542.71875 1399.671875 553.886719 C 1411.996094 565.058594 1424.039062 576.523438 1435.796875 588.285156 C 1447.558594 600.046875 1459.023438 612.089844 1470.195312 624.410156 C 1481.363281 636.734375 1492.226562 649.328125 1502.777344 662.183594 C 1513.328125 675.039062 1523.558594 688.148438 1533.464844 701.507812 C 1543.375 714.867188 1552.949219 728.460938 1562.1875 742.292969 C 1571.429688 756.121094 1580.324219 770.167969 1588.875 784.433594 C 1597.425781 798.703125 1605.621094 813.167969 1613.464844 827.835938 C 1621.304688 842.507812 1628.78125 857.359375 1635.890625 872.394531 C 1643 887.429688 1649.738281 902.628906 1656.105469 917.996094 C 1662.46875 933.363281 1668.453125 948.875 1674.058594 964.539062 C 1679.660156 980.199219 1684.875 995.984375 1689.703125 1011.902344 C 1694.53125 1027.820312 1698.96875 1043.84375 1703.007812 1059.976562 C 1707.050781 1076.113281 1710.695312 1092.335938 1713.9375 1108.648438 C 1717.183594 1124.960938 1720.027344 1141.34375 1722.464844 1157.796875 C 1724.90625 1174.25 1726.941406 1190.75 1728.574219 1207.304688 C 1730.203125 1223.855469 1731.425781 1240.4375 1732.242188 1257.050781 C 1733.058594 1273.664062 1733.464844 1290.285156 1733.46875 1306.917969 Z M 1733.46875 1306.917969 " fill-opacity="1" fill-rule="nonzero"/></g><g clip-path="url(#a4dc9d9d5d)"><path fill="#65b8c3" d="M 140.503906 550.519531 C 163.304688 556.722656 186.066406 563.195312 209.132812 568.28125 C 248.296875 576.902344 287.597656 584.898438 326.96875 592.453125 C 358.371094 598.46875 389.910156 603.902344 421.519531 608.6875 C 446.554688 612.480469 471.785156 615.054688 496.957031 617.882812 C 519.710938 620.441406 542.53125 622.199219 565.34375 624.179688 C 597.058594 626.9375 628.796875 628.355469 660.554688 630.113281 C 699.4375 632.253906 738.296875 631.488281 777.125 630.964844 C 807.882812 630.542969 838.679688 627.972656 869.332031 625.121094 C 900.664062 622.210938 931.875 618.089844 963.078125 613.84375 C 1000.867188 608.710938 1038.457031 602.554688 1076.003906 595.898438 C 1102.164062 591.253906 1128.246094 586.296875 1154.316406 581.1875 C 1203.664062 571.527344 1252.578125 560.273438 1301.0625 547.003906 C 1323.617188 540.835938 1345.925781 533.992188 1367.980469 526.347656 C 1301.992188 471.265625 1228.917969 424.398438 1150.3125 387.304688 C 1130.691406 390.738281 1111.070312 394.195312 1091.425781 397.476562 C 1063.28125 402.179688 1035.117188 406.859375 1006.882812 410.933594 C 982.292969 414.480469 957.597656 417.25 932.921875 420.207031 C 908.019531 423.199219 883.125 426.492188 858.148438 428.785156 C 833.242188 431.078125 808.265625 432.929688 783.328125 434.511719 C 758.46875 436.09375 733.503906 437.558594 708.585938 437.605469 C 668.25 437.6875 627.875 439.339844 587.539062 436.535156 C 569.054688 435.253906 550.457031 435.769531 531.964844 434.695312 C 524.097656 434.242188 516.195312 433.917969 508.351562 433.207031 C 485.074219 431.101562 461.820312 428.679688 438.605469 425.933594 C 415.152344 423.152344 391.644531 420.511719 368.378906 416.542969 C 333.441406 410.59375 298.644531 403.796875 263.832031 397.058594 C 191.816406 433.007812 124.664062 477.257812 63.632812 528.558594 C 68.417969 529.957031 73.210938 531.351562 78.007812 532.738281 C 98.839844 538.71875 119.613281 544.839844 140.503906 550.519531 Z M 140.503906 550.519531 " fill-opacity="1" fill-rule="nonzero"/></g></svg>